PathFileType	4	(X/Y/Z)	C:\Users\Basilio\Documents\Thesis Gigler\squatting_fais\c3dfiles\038\SJ_pre1\markers_experimental.trc
DataRate	CameraRate	NumFrames	NumMarkers	Units	OrigDataRate	OrigDataStartFrame	OrigNumFrames
200.000000	200.000000	4	61	mm	200.000000	1195	1366
Frame#	Time	FHD			LBHD			RBHD			C7			T10			CLAV			LSHO			LUUPA			LMUPA			LDUPA			LLEP			LMEP			LRAD			LUL			LRFIN			RSHO			RUPA1			RMUPA			RDUPA			RLEP			RMEP			RRAD			RUL			RUFIN			LASI			RASI			USACR			LSACR			RSACR			LTHI1			LTHI2			LTHI3			LTHI4			LLFC			LMFC			LTIB1			LTIB2			LTIB3			LTIB4			LLMAL			LMMAL			LHEE			LMT1			LMT2			LMT5			RTHI			RTHI2			RTHI3			RTHI4			RLFC			RMFC			RTIB1			RTIB2			RTIB3			RTIB4			RLMAL			RMMAL			RHEE			RMT1			RMT2			RMT5			
		X1	Y1	Z1	X2	Y2	Z2	X3	Y3	Z3	X4	Y4	Z4	X5	Y5	Z5	X6	Y6	Z6	X7	Y7	Z7	X8	Y8	Z8	X9	Y9	Z9	X10	Y10	Z10	X11	Y11	Z11	X12	Y12	Z12	X13	Y13	Z13	X14	Y14	Z14	X15	Y15	Z15	X16	Y16	Z16	X17	Y17	Z17	X18	Y18	Z18	X19	Y19	Z19	X20	Y20	Z20	X21	Y21	Z21	X22	Y22	Z22	X23	Y23	Z23	X24	Y24	Z24	X25	Y25	Z25	X26	Y26	Z26	X27	Y27	Z27	X28	Y28	Z28	X29	Y29	Z29	X30	Y30	Z30	X31	Y31	Z31	X32	Y32	Z32	X33	Y33	Z33	X34	Y34	Z34	X35	Y35	Z35	X36	Y36	Z36	X37	Y37	Z37	X38	Y38	Z38	X39	Y39	Z39	X40	Y40	Z40	X41	Y41	Z41	X42	Y42	Z42	X43	Y43	Z43	X44	Y44	Z44	X45	Y45	Z45	X46	Y46	Z46	X47	Y47	Z47	X48	Y48	Z48	X49	Y49	Z49	X50	Y50	Z50	X51	Y51	Z51	X52	Y52	Z52	X53	Y53	Z53	X54	Y54	Z54	X55	Y55	Z55	X56	Y56	Z56	X57	Y57	Z57	X58	Y58	Z58	X59	Y59	Z59	X60	Y60	Z60	X61	Y61	Z61	

1196	5.975000000000001	-293.5625915527344	1786.1162109375	-982.5484008789065	-414.7460937500001	1669.443603515625	-1035.603393554688	-395.238983154297	1666.079711914063	-890.2579345703127	-413.3920898437501	1518.035522460938	-950.1758422851565	-411.0865173339845	1237.554565429688	-937.014587402344	-269.9159545898438	1497.60009765625	-983.434509277344	-370.1077270507813	1523.748779296875	-1140.417358398438	-443.3611450195314	1291.294677734375	-1217.67138671875	-396.2519531250001	1274.053955078125	-1223.576904296875	-428.9822082519532	1224.587768554688	-1230.476440429688	-410.3953552246095	1165.161254882813	-1236.798461914063	-442.5235290527345	1138.625610351563	-1164.793823242188	-178.295166015625	1052.276000976563	-1090.147338867188	-187.3594207763672	1005.06884765625	-1144.772827148438	-99.97444915771487	1034.694091796875	-1078.949340820313	-296.6107177734376	1517.291137695313	-802.7016601562502	-292.9010620117188	1315.100463867188	-686.2301635742189	-258.9119567871094	1285.2421875	-704.7374877929689	-286.9689636230469	1248.208129882813	-666.6384887695314	-269.3934936523438	1175.615356445313	-654.2271118164064	-333.2127380371094	1145.012084960938	-697.6801147460939	-132.819808959961	970.488952636719	-788.659606933594	-137.585205078125	934.8904418945315	-726.8349609375001	-56.6183547973633	935.103454589844	-788.488464355469	-291.4460449218751	1041.539916992188	-1079.367919921875	-247.4196014404297	1046.212036132813	-833.4951782226565	-429.8625793457032	1106.604125976563	-931.1225585937502	-450.0199584960939	1076.858520507813	-956.296569824219	-436.739227294922	1076.886840820313	-900.1941528320315	-352.4776306152344	726.6764526367189	-1136.0693359375	-322.5370788574219	646.4842529296876	-1137.311401367188	-274.8895568847657	651.7413330078126	-1121.33740234375	-348.1620788574219	597.0021972656251	-1114.35791015625	-342.3050842285157	536.9622192382814	-1109.414306640625	-305.7298278808594	521.4918212890626	-996.5119628906252	-298.8171386718751	343.3020935058594	-1061.541870117188	-358.6518249511719	306.5999145507813	-1116.944702148438	-318.1897888183594	299.5727233886719	-1096.77783203125	-324.9477233886719	219.5126342773438	-1071.161865234375	-415.6967163085939	85.41390228271486	-1077.90380859375	-358.3430786132813	96.31311035156253	-1020.494873046875	-442.7146606445314	44.09329223632813	-1015.451354980469	-243.5153503417969	48.32692718505861	-1088.785400390625	-258.6099243164063	50.83196258544923	-1136.970947265625	-313.3367309570313	31.64142990112305	-1167.301391601563	-351.9103088378907	789.6882324218752	-749.4432373046876	-322.4739685058594	730.4982299804689	-736.4810791015626	-289.9450073242188	728.8687744140626	-735.9418334960939	-358.0214233398438	653.3425903320314	-753.0722656250001	-352.9016723632813	515.9313964843751	-749.5104370117189	-324.2454833984376	503.2868957519532	-866.6381835937502	-302.8209838867188	341.2685241699219	-743.4150390625001	-383.5885009765626	261.4890747070313	-719.3264770507814	-335.9295654296876	266.1766967773438	-717.0116577148439	-316.5362243652344	213.1969604492188	-735.8681640625001	-384.7434387207032	91.96164703369142	-713.4976806640626	-331.1003417968751	90.74561309814455	-777.6138305664065	-415.6932678222657	39.72694778442384	-790.9918212890627	-217.0895538330079	49.66614532470705	-695.0308227539064	-237.3260803222657	53.16941833496095	-653.3245239257814	-295.1217956542969	35.3285026550293	-627.3338623046876	
1197	5.98	-293.0524291992188	1785.99853515625	-983.0989379882815	-414.4685363769532	1669.561401367188	-1036.286743164063	-395.1841125488282	1666.298828125	-890.9538574218752	-413.3955383300782	1518.002197265625	-950.9212036132815	-411.171112060547	1237.441040039063	-937.4624023437502	-269.9541015625001	1497.486206054688	-984.0022583007815	-370.2584838867188	1523.798095703125	-1140.919555664063	-443.571746826172	1291.385375976563	-1218.225341796875	-396.6105041503907	1274.1728515625	-1224.225708007813	-429.181610107422	1224.684204101563	-1231.033935546875	-410.4550781250001	1165.272583007813	-1237.427124023438	-442.5948791503907	1138.795043945313	-1165.51171875	-178.2739715576172	1053.317260742188	-1090.337768554688	-187.0146942138672	1006.068725585938	-1145.10693359375	-100.0383071899414	1035.812133789063	-1078.739868164063	-296.8442077636719	1517.413452148438	-803.386657714844	-293.7799072265626	1315.197875976563	-686.9486694335939	-259.5610351562501	1285.537719726563	-705.1626586914064	-287.5945434570313	1248.587768554688	-667.0838623046876	-270.2553405761719	1175.893310546875	-654.7135009765626	-333.7712097167969	1145.248413085938	-698.1588745117189	-133.2369689941407	970.809753417969	-788.9348144531252	-137.9485168457032	935.236755371094	-727.0877075195314	-57.27990722656251	935.5791625976565	-789.198669433594	-291.2739562988282	1041.496948242188	-1079.815795898438	-247.3717803955079	1046.338012695313	-833.858337402344	-429.9454040527345	1106.587280273438	-931.5549316406252	-449.9481811523439	1076.81689453125	-956.8521728515627	-436.7984924316407	1076.86767578125	-900.8618164062502	-352.5455017089844	726.3881225585939	-1136.467407226563	-322.5349121093751	646.4641113281251	-1137.623779296875	-274.8644409179688	651.7153320312501	-1121.560424804688	-348.1589660644532	597.0230102539064	-1114.655395507813	-342.2331848144532	536.9033813476564	-1109.738037109375	-305.7174682617188	521.5582275390626	-996.6809082031252	-298.7817077636719	343.2865905761719	-1061.65869140625	-358.7280273437501	306.5641784667969	-1117.084594726563	-318.2882385253907	299.6757202148438	-1096.961181640625	-324.9277954101563	219.3860778808594	-1071.273803710938	-415.651824951172	85.25444793701173	-1077.977783203125	-358.3620300292969	96.30437469482425	-1020.548828125	-442.659881591797	44.08311843872071	-1015.451965332031	-243.5629425048829	48.35143661499025	-1088.805297851563	-258.6705932617188	50.86574554443361	-1136.948852539063	-313.2724609375001	31.61051750183106	-1167.358520507813	-351.8697204589844	789.636413574219	-749.8039550781251	-322.5288085937501	730.8593750000001	-736.7162475585939	-289.7778015136719	728.9110717773439	-736.3368530273439	-357.9807128906251	653.2901611328126	-753.3562011718751	-352.7019653320313	516.1156005859376	-749.7290649414064	-324.1599426269532	503.2473144531251	-866.9063720703127	-302.7597961425782	341.2582397460938	-743.5989990234376	-383.5325012207032	261.4615478515626	-719.5381469726564	-335.8936767578126	266.1753845214844	-717.1016235351564	-316.5341186523438	213.1902618408204	-735.9427490234376	-384.7867431640626	91.95474243164064	-713.5416870117189	-331.0229797363282	90.7644500732422	-777.6156005859377	-415.6781311035157	39.70916366577149	-791.0064086914065	-217.3214111328126	49.17202377319337	-695.1972656250001	-237.3427276611329	53.15076446533205	-653.3964843750001	-294.8398742675782	35.53402328491212	-627.1138305664064	
1198	5.985	-292.4131774902344	1785.823852539063	-983.6113891601565	-414.0957946777345	1669.576538085938	-1036.964477539063	-395.020721435547	1666.318603515625	-891.4395751953127	-413.3625793457032	1518.014404296875	-951.5874633789065	-411.3005371093751	1237.481079101563	-938.0010986328127	-270.0099182128907	1497.388061523438	-984.5966796875002	-370.5110473632813	1523.871948242188	-1141.46240234375	-443.7554931640626	1291.505859375	-1218.819213867188	-396.8409423828126	1274.33740234375	-1224.813598632813	-429.4111328125001	1224.866821289063	-1231.726318359375	-410.7043457031251	1165.4033203125	-1238.005126953125	-442.7652893066407	1138.831176757813	-1166.077026367188	-178.1759033203125	1054.292602539063	-1090.818603515625	-186.8318939208985	1006.967529296875	-1145.418579101563	-99.74681091308597	1036.886840820313	-1078.70556640625	-297.1147155761719	1517.586669921875	-804.0228271484377	-294.4045104980469	1315.39404296875	-687.3569335937501	-260.0135803222657	1286.006713867188	-705.3778076171876	-288.3546752929688	1248.851928710938	-667.4971313476564	-271.0485534667969	1176.076904296875	-655.0571899414064	-334.4282836914063	1145.57177734375	-698.6390380859376	-133.7655487060547	971.142272949219	-789.161560058594	-138.4856262207032	935.7381591796877	-727.2744140625001	-57.77789688110353	935.9388427734377	-789.4366455078127	-291.1451721191407	1041.451538085938	-1080.200561523438	-247.5093841552735	1046.260986328125	-834.2615966796877	-429.9862670898439	1106.563232421875	-932.0219726562502	-449.9508666992189	1076.817260742188	-957.3599853515627	-436.9223632812501	1076.851318359375	-901.309509277344	-352.4421081542969	726.3693847656251	-1136.860473632813	-322.4970397949219	646.4967041015626	-1138.037353515625	-274.9114074707032	651.6618652343751	-1121.773681640625	-348.1631469726563	596.9552612304689	-1115.006713867188	-342.2560119628907	536.8751220703126	-1109.979858398438	-305.7756958007813	521.6343994140626	-996.946960449219	-298.8461303710938	343.2550354003907	-1061.758178710938	-358.7006835937501	306.5328979492188	-1117.27197265625	-318.2656250000001	299.5576171875001	-1097.0361328125	-325.0137939453126	219.3181152343751	-1071.359985351563	-415.6848754882814	85.29968261718751	-1077.993286132813	-358.3144226074219	96.3464279174805	-1020.494506835938	-442.691375732422	44.08068466186524	-1015.475708007813	-243.5117492675782	48.37962341308595	-1088.776000976563	-258.6761169433594	50.84801483154298	-1136.932006835938	-313.3168029785157	31.59897613525391	-1167.352783203125	-351.7707519531251	789.6116333007815	-750.0689697265626	-322.3711547851563	730.8903198242189	-737.0106201171876	-289.6376342773438	728.9862670898439	-736.6948852539064	-357.8733825683594	653.2041625976564	-753.6187133789064	-352.7318725585938	515.9365844726564	-750.1076049804689	-324.1501770019532	503.1916503906251	-867.048278808594	-302.6988830566407	341.3120727539063	-743.7116088867189	-383.2629394531251	261.7015686035157	-719.5626220703126	-335.8075561523438	266.2676391601563	-717.1660156250001	-316.4481201171876	213.2482604980469	-736.0482788085939	-384.7916259765626	92.0022430419922	-713.5565795898439	-331.0744934082032	90.7295379638672	-777.6571044921877	-415.7086181640626	39.71910095214844	-791.052917480469	-217.2921142578126	49.18467712402345	-695.2001953125001	-237.3638305664063	53.13689422607423	-653.3987426757814	-294.8616943359376	35.49576950073243	-627.1567382812501	
1199	5.99	-291.8718566894532	1785.670532226563	-984.2800292968752	-413.8162841796876	1669.709350585938	-1037.667358398438	-394.525115966797	1666.529541015625	-892.9144287109377	-413.4008178710939	1518.1845703125	-952.215026855469	-411.4722290039064	1237.483154296875	-938.6321411132815	-270.0429077148438	1497.237426757813	-985.2023925781252	-370.4662780761719	1523.957153320313	-1141.938354492188	-443.9384765625001	1291.647705078125	-1219.458251953125	-397.0679016113282	1274.47119140625	-1225.3564453125	-429.4759216308595	1225.016967773438	-1232.376220703125	-410.8465881347657	1165.49169921875	-1238.593627929688	-442.975555419922	1138.974487304688	-1166.677490234375	-178.0340270996094	1054.936279296875	-1091.077758789063	-186.5951232910157	1007.911193847656	-1145.801513671875	-99.90679931640628	1037.955444335938	-1078.661376953125	-297.3842773437501	1517.691162109375	-804.7954711914065	-295.2724609375001	1315.645629882813	-687.7789306640626	-260.6968078613282	1286.290283203125	-705.7929687500001	-289.0219116210938	1249.086791992188	-667.8863525390626	-271.8413085937501	1176.324462890625	-655.3631591796876	-335.1989746093751	1145.9228515625	-698.9669189453126	-134.4851837158203	971.4343872070315	-789.222106933594	-139.0211486816407	936.182556152344	-727.3978271484376	-58.41688537597658	936.3169555664065	-789.403747558594	-290.9942626953126	1041.445678710938	-1080.6259765625	-247.5924835205079	1046.2236328125	-834.6368408203127	-430.0299682617189	1106.485961914063	-932.5998535156252	-450.0200805664064	1076.81884765625	-957.8836059570315	-436.9685058593751	1076.765380859375	-901.7476806640627	-352.4654541015626	726.4446411132814	-1137.259765625	-322.4336547851563	646.4230957031251	-1138.3681640625	-274.8788757324219	651.7199707031251	-1122.098999023438	-348.2006835937501	596.9392089843751	-1115.3017578125	-342.3543395996094	536.9444580078126	-1110.188842773438	-305.8114013671876	521.6720581054689	-997.2501220703127	-298.8818054199219	343.2189331054688	-1061.943603515625	-358.6936950683594	306.5174560546876	-1117.35986328125	-318.2754821777344	299.5043029785157	-1097.136596679688	-325.0523071289063	219.3344268798829	-1071.444091796875	-415.7024230957032	85.31428527832033	-1077.998168945313	-358.4339904785157	96.2779235839844	-1020.544189453125	-442.7363586425782	44.09555435180665	-1015.493225097656	-243.5068511962891	48.36944961547853	-1088.802978515625	-258.6047668457032	50.79247665405275	-1136.971923828125	-313.3155822753907	31.58623123168946	-1167.371337890625	-351.6262512207032	789.638122558594	-750.3623046875001	-322.2052612304688	730.8609008789064	-737.2513427734376	-289.4556884765626	728.9375000000001	-737.0317382812501	-357.8049011230469	653.2329101562501	-753.8637084960939	-352.5836486816407	515.9145507812501	-750.4462280273439	-323.8863220214844	503.1697692871095	-867.3150634765627	-302.6486206054688	341.3044738769532	-743.8529663085939	-383.2827148437501	261.7551269531251	-719.6707763671876	-335.7353515625001	266.2255859375001	-717.2979125976564	-316.3960571289063	213.2143859863282	-736.1254882812501	-384.7702636718751	92.00420379638673	-713.6087036132814	-330.9869995117188	90.7122268676758	-777.6353759765627	-415.6770324707032	39.73726272583009	-791.062194824219	-217.060531616211	49.67169570922853	-695.0189819335939	-237.2660217285157	53.18811416625978	-653.3173217773439	-294.8790588378907	35.51587295532227	-627.1785888671876	
